<svg width="20" height="20" viewBox="0 0 20 20" fill="none" xmlns="http://www.w3.org/2000/svg">
<path d="M5.62862 20C6.78309 19.9975 7.9091 19.641 8.85477 18.9788C9.80068 18.3167 10.5206 17.3805 10.9178 16.2963L11.4927 14.7141L12.3607 17.3212C12.769 18.4958 13.7092 19.4081 14.8957 19.7803C16.0823 20.1525 17.375 19.941 18.3809 19.2101C19.3869 18.4791 19.9875 17.315 20 16.0714V12.8572H17.1428V16.0714C17.1261 16.4002 16.9589 16.7029 16.6899 16.8927C16.4208 17.0823 16.0795 17.1376 15.7644 17.0429C15.449 16.948 15.1949 16.7136 15.0748 16.4072L13.0642 10.3928L16.8464 0H13.8036L11.6108 6.03226L10.8714 3.81804C10.3089 2.1285 8.97333 0.80887 7.27735 0.266524C5.58105 -0.275567 3.72786 0.0246232 2.28966 1.07443C0.85121 2.12424 0.000446428 3.79783 0 5.57857V14.3713C0.00199298 15.8635 0.595649 17.294 1.6507 18.3493C2.70599 19.4043 4.13641 19.998 5.62862 20ZM2.85714 5.57848C2.85664 4.70954 3.27143 3.89265 3.97295 3.37996C4.67474 2.86726 5.57907 2.72052 6.40688 2.98485C7.23449 3.24941 7.88615 3.89314 8.1607 4.71775L10.0393 10.3572L8.23219 15.3177C7.93225 16.1398 7.26159 16.7721 6.42307 17.0229C5.58475 17.2738 4.67722 17.1141 3.97493 16.5919C3.27263 16.0698 2.85809 15.2464 2.85714 14.3713V5.57848Z" fill="white"/>
</svg>
