<svg width="13" height="17" viewBox="0 0 13 17" fill="none" xmlns="http://www.w3.org/2000/svg">
<path opacity="0.4" d="M9.84436 5C10.0944 5 10.3444 5.25 10.3444 5.5C10.3444 5.78125 10.0944 6 9.84436 6H3.84436C3.56311 6 3.34436 5.78125 3.34436 5.5C3.34436 5.25 3.56311 5 3.84436 5H9.84436ZM3.34436 11.5C3.34436 11.25 3.56311 11 3.84436 11H9.84436C10.0944 11 10.3444 11.25 10.3444 11.5C10.3444 11.7812 10.0944 12 9.84436 12H3.84436C3.56311 12 3.34436 11.7812 3.34436 11.5ZM9.84436 8C10.0944 8 10.3444 8.25 10.3444 8.5C10.3444 8.78125 10.0944 9 9.84436 9H3.84436C3.56311 9 3.34436 8.78125 3.34436 8.5C3.34436 8.25 3.56311 8 3.84436 8H9.84436ZM3.31311 2.09375L4.71936 0.65625C4.90686 0.46875 5.25061 0.46875 5.43811 0.65625L6.84436 2.0625L8.21936 0.65625C8.40686 0.46875 8.75061 0.46875 8.93811 0.65625L10.3444 2.09375L12.0006 0.625C12.1569 0.5 12.3444 0.46875 12.5319 0.5625C12.7194 0.65625 12.8444 0.8125 12.8444 1V16C12.8444 16.2188 12.7194 16.375 12.5319 16.4688C12.3444 16.5625 12.1569 16.5312 12.0006 16.375L10.3444 14.9375L8.93811 16.375C8.75061 16.5625 8.40686 16.5625 8.21936 16.375L6.84436 14.9688L5.43811 16.375C5.25061 16.5625 4.90686 16.5625 4.71936 16.375L3.31311 14.9375L1.65686 16.375C1.50061 16.5312 1.31311 16.5625 1.12561 16.4688C0.93811 16.375 0.84436 16.2188 0.84436 16V1C0.84436 0.8125 0.93811 0.65625 1.12561 0.5625C1.31311 0.46875 1.50061 0.5 1.65686 0.625L3.31311 2.09375ZM3.00061 13.875C3.18811 13.7188 3.50061 13.7188 3.68811 13.9062L5.09436 15.3125L6.46936 13.9062C6.65686 13.7188 7.00061 13.7188 7.18811 13.9062L8.59436 15.3125L9.96936 13.9062C10.1569 13.7188 10.4694 13.7188 10.6569 13.875L11.8444 14.9062V2.125L10.6569 3.15625C10.4694 3.3125 10.1569 3.3125 9.96936 3.125L8.59436 1.71875L7.18811 3.125C7.00061 3.3125 6.65686 3.3125 6.46936 3.125L5.09436 1.71875L3.68811 3.125C3.50061 3.3125 3.18811 3.3125 3.00061 3.15625L1.84436 2.125V14.9062L3.00061 13.875Z" fill="white"/>
</svg>
