<svg width="189" height="38" viewBox="0 0 189 38" fill="none" xmlns="http://www.w3.org/2000/svg">
<path d="M37.5921 0C42.6294 0 47.3561 1.98968 50.8589 5.46943C51.2003 5.8085 50.0853 8.44887 49.6397 8.45065C49.1941 8.45244 48.7478 8.28401 48.4065 7.94493C45.5497 5.10698 41.7011 3.48698 37.5921 3.48698C33.3551 3.48698 29.5195 5.20379 26.7431 7.9794C23.9666 10.7551 22.2493 14.5897 22.2493 18.825C22.2493 23.0603 23.9666 26.8949 26.7431 29.6706C29.5195 32.4462 33.3551 34.163 37.5921 34.163C43.2281 34.163 47.866 31.3782 50.8006 27.0205C52.7832 24.0764 53.903 21.5006 54.0791 18.1365C54.2371 15.1178 54.0775 13.2392 53.9852 12.1535C53.9482 11.7178 53.9109 11.4298 53.9171 11.2249C53.9169 10.9802 54.107 10.7901 54.3416 10.7901C54.5233 10.7901 54.6783 10.9041 54.7389 11.0646L54.739 11.0655C54.8009 11.2018 54.9699 11.5996 55.0494 11.797C55.9412 14.012 56.4171 16.3879 56.4171 18.825C56.4171 24.0235 54.31 28.7297 50.9034 32.1363C47.4967 35.543 42.7903 37.65 37.5921 37.65C32.3939 37.65 27.6875 35.543 24.2808 32.1363C20.8742 28.7297 18.7671 24.0235 18.7671 18.825C18.7671 13.6265 20.8742 8.92029 24.2808 5.51371C27.6875 2.10702 32.3939 0 37.5921 0Z" fill="#EF1891"/>
<path d="M37.5921 0C42.6294 0 47.3561 1.98968 50.8589 5.46943C51.2003 5.8085 50.0853 8.44887 49.6397 8.45065C49.1941 8.45244 48.7478 8.28401 48.4065 7.94493C45.5497 5.10698 41.7011 3.48698 37.5921 3.48698C33.3551 3.48698 29.5195 5.20379 26.7431 7.9794C23.9666 10.7551 22.2493 14.5897 22.2493 18.825C22.2493 23.0603 23.9666 26.8949 26.7431 29.6706C29.5195 32.4462 33.3551 34.163 37.5921 34.163C43.2281 34.163 47.866 31.3782 50.8006 27.0205C52.7832 24.0764 53.903 21.5006 54.0791 18.1365C54.2371 15.1178 54.0775 13.2392 53.9852 12.1535C53.9482 11.7178 53.9109 11.4298 53.9171 11.2249C53.9169 10.9802 54.107 10.7901 54.3416 10.7901C54.5233 10.7901 54.6783 10.9041 54.7389 11.0646L54.739 11.0655C54.8009 11.2018 54.9699 11.5996 55.0494 11.797C55.9412 14.012 56.4171 16.3879 56.4171 18.825C56.4171 24.0235 54.31 28.7297 50.9034 32.1363C47.4967 35.543 42.7903 37.65 37.5921 37.65C32.3939 37.65 27.6875 35.543 24.2808 32.1363C20.8742 28.7297 18.7671 24.0235 18.7671 18.825C18.7671 13.6265 20.8742 8.92029 24.2808 5.51371C27.6875 2.10702 32.3939 0 37.5921 0Z" fill="url(#paint0_linear_1_300)"/>
<path d="M37.5921 0C42.6294 0 47.3561 1.98968 50.8589 5.46943C51.2003 5.8085 50.0853 8.44887 49.6397 8.45065C49.1941 8.45244 48.7478 8.28401 48.4065 7.94493C45.5497 5.10698 41.7011 3.48698 37.5921 3.48698C33.3551 3.48698 29.5195 5.20379 26.7431 7.9794C23.9666 10.7551 22.2493 14.5897 22.2493 18.825C22.2493 23.0603 23.9666 26.8949 26.7431 29.6706C29.5195 32.4462 33.3551 34.163 37.5921 34.163C43.2281 34.163 47.866 31.3782 50.8006 27.0205C52.7832 24.0764 53.903 21.5006 54.0791 18.1365C54.2371 15.1178 54.0775 13.2392 53.9852 12.1535C53.9482 11.7178 53.9109 11.4298 53.9171 11.2249C53.9169 10.9802 54.107 10.7901 54.3416 10.7901C54.5233 10.7901 54.6783 10.9041 54.7389 11.0646L54.739 11.0655C54.8009 11.2018 54.9699 11.5996 55.0494 11.797C55.9412 14.012 56.4171 16.3879 56.4171 18.825C56.4171 24.0235 54.31 28.7297 50.9034 32.1363C47.4967 35.543 42.7903 37.65 37.5921 37.65C32.3939 37.65 27.6875 35.543 24.2808 32.1363C20.8742 28.7297 18.7671 24.0235 18.7671 18.825C18.7671 13.6265 20.8742 8.92029 24.2808 5.51371C27.6875 2.10702 32.3939 0 37.5921 0Z" fill="url(#paint1_linear_1_300)"/>
<path d="M37.5921 0C42.6294 0 47.3561 1.98968 50.8589 5.46943C51.2003 5.8085 50.0853 8.44887 49.6397 8.45065C49.1941 8.45244 48.7478 8.28401 48.4065 7.94493C45.5497 5.10698 41.7011 3.48698 37.5921 3.48698C33.3551 3.48698 29.5195 5.20379 26.7431 7.9794C23.9666 10.7551 22.2493 14.5897 22.2493 18.825C22.2493 23.0603 23.9666 26.8949 26.7431 29.6706C29.5195 32.4462 33.3551 34.163 37.5921 34.163C43.2281 34.163 47.866 31.3782 50.8006 27.0205C52.7832 24.0764 53.903 21.5006 54.0791 18.1365C54.2371 15.1178 54.0775 13.2392 53.9852 12.1535C53.9482 11.7178 53.9109 11.4298 53.9171 11.2249C53.9169 10.9802 54.107 10.7901 54.3416 10.7901C54.5233 10.7901 54.6783 10.9041 54.7389 11.0646L54.739 11.0655C54.8009 11.2018 54.9699 11.5996 55.0494 11.797C55.9412 14.012 56.4171 16.3879 56.4171 18.825C56.4171 24.0235 54.31 28.7297 50.9034 32.1363C47.4967 35.543 42.7903 37.65 37.5921 37.65C32.3939 37.65 27.6875 35.543 24.2808 32.1363C20.8742 28.7297 18.7671 24.0235 18.7671 18.825C18.7671 13.6265 20.8742 8.92029 24.2808 5.51371C27.6875 2.10702 32.3939 0 37.5921 0Z" fill="url(#paint2_linear_1_300)"/>
<path d="M36.5549 19.8485C36.0419 19.3403 36.0506 18.3274 36.6777 17.7108L38.0807 16.3204C42.8432 11.6001 45.8832 8.58752 47.2005 7.28273C47.8382 6.61869 47.3602 7.10039 47.8144 6.67442C49.6439 4.83726 51.632 3.70127 52.2335 4.29758C52.2408 4.30443 52.2866 4.34986 52.3178 4.38101C52.8952 4.95286 51.7492 6.92324 49.9197 8.7604C49.4237 9.24474 50.1095 8.56776 49.2182 9.45561C47.9504 10.7298 44.9396 13.7134 40.186 18.4064L38.783 19.7968C38.1365 20.413 37.1144 20.3999 36.5549 19.8485Z" fill="white"/>
<path d="M59.4814 9.29668H62.6672C62.9337 9.29668 63.1499 9.51279 63.1499 9.77938V13.1064C63.786 11.773 64.7562 10.7095 66.0604 9.91577C67.3646 9.12207 68.9392 8.72522 70.7842 8.72522C72.311 8.72522 73.6152 8.97127 74.6968 9.46336C75.7783 9.95546 76.6372 10.6618 77.2733 11.5825C77.8777 12.408 78.3072 13.3287 78.5616 14.3446C78.8161 15.3606 78.9434 16.6305 78.9434 18.1544V30.4344C78.9434 30.701 78.7273 30.9171 78.4607 30.9171H75.2749C75.0083 30.9171 74.7922 30.701 74.7922 30.4344V19.4402C74.7922 18.456 74.6968 17.5274 74.5059 16.6543C74.3151 15.7812 74.0049 15.0351 73.5755 14.416C73.146 13.797 72.5814 13.3049 71.8816 12.9398C71.1818 12.5747 70.3229 12.3921 69.305 12.3921C68.2553 12.3921 67.3487 12.5985 66.5853 13.0112C65.8219 13.4239 65.1857 13.9716 64.6767 14.6542C64.1678 15.3367 63.786 16.1225 63.5316 17.0114C63.2771 17.9004 63.1499 18.8211 63.1499 19.7735V30.4344C63.1499 30.701 62.9337 30.9171 62.6672 30.9171H59.4814C59.2148 30.9171 58.9987 30.701 58.9987 30.4344V9.77938C58.9987 9.51279 59.2148 9.29668 59.4814 9.29668Z" fill="url(#paint3_linear_1_300)"/>
<path d="M103.948 9.77938V30.4344C103.948 30.701 103.732 30.9171 103.465 30.9171H100.327C100.06 30.9171 99.8443 30.701 99.8443 30.4344V27.1549C99.1445 28.4884 98.1027 29.536 96.719 30.298C95.3353 31.0599 93.8482 31.4409 92.2577 31.4409C90.6036 31.4409 89.0927 31.1393 87.7248 30.5361C86.357 29.9329 85.188 29.1074 84.2178 28.0598C83.2476 27.0121 82.4921 25.8056 81.9514 24.4405C81.4106 23.0753 81.1402 21.6308 81.1402 20.1069C81.1402 18.583 81.4106 17.1305 81.9514 15.7495C82.4921 14.3684 83.2476 13.1541 84.2178 12.1064C85.188 11.0587 86.357 10.2332 87.7248 9.63004C89.0927 9.02683 90.6036 8.72522 92.2577 8.72522C93.8482 8.72522 95.3353 9.1062 96.719 9.86815C98.1027 10.6301 99.1445 11.6778 99.8443 13.0112V9.77938C99.8443 9.51279 100.06 9.29668 100.327 9.29668H103.465C103.732 9.29668 103.948 9.51279 103.948 9.77938ZM92.4963 27.7264C93.6096 27.7264 94.6196 27.52 95.5262 27.1073C96.4327 26.6946 97.2041 26.1469 97.8403 25.4644C98.4765 24.7818 98.9696 23.9801 99.3195 23.0594C99.6694 22.1388 99.8443 21.1546 99.8443 20.1069C99.8443 19.0592 99.6694 18.075 99.3195 17.1543C98.9696 16.2336 98.4765 15.424 97.8403 14.7256C97.2041 14.0271 96.4327 13.4715 95.5262 13.0588C94.6196 12.6461 93.6096 12.4397 92.4963 12.4397C91.3829 12.4397 90.3809 12.6461 89.4903 13.0588C88.5996 13.4715 87.8441 14.0271 87.2238 14.7256C86.6035 15.424 86.1184 16.2336 85.7685 17.1543C85.4186 18.075 85.2437 19.0592 85.2437 20.1069C85.2437 21.1546 85.4186 22.1388 85.7685 23.0594C86.1184 23.9801 86.6035 24.7818 87.2238 25.4644C87.8441 26.1469 88.5996 26.6946 89.4903 27.1073C90.3809 27.52 91.3829 27.7264 92.4963 27.7264Z" fill="white"/>
<path d="M119.606 12.9971C119.378 12.9554 119.21 12.9283 119.104 12.9159C118.834 12.8841 118.508 12.8683 118.126 12.8683C115.709 12.8683 113.903 13.6461 112.71 15.2017C111.518 16.7574 110.921 18.8369 110.921 21.4402V30.4343C110.921 30.7009 110.705 30.917 110.438 30.917H107.253C106.986 30.917 106.77 30.7009 106.77 30.4343V9.7793C106.77 9.51272 106.986 9.29661 107.253 9.29661H110.438C110.705 9.29661 110.921 9.51272 110.921 9.7793V13.535C111.944 11.8894 112.907 10.7861 113.808 10.2252C115.16 9.38392 116.599 8.96326 118.126 8.96326C118.809 8.96326 119.395 9.03912 119.883 9.19085C120.058 9.24537 120.178 9.40764 120.178 9.59126V12.5223C120.178 12.7888 119.962 13.0049 119.695 13.0049C119.665 13.0049 119.636 13.0022 119.606 12.9971Z" fill="white"/>
<path d="M10.9616 18.8687C11.7887 19.1227 12.5919 19.3925 13.3712 19.6783C14.1506 19.964 14.8424 20.3291 15.4468 20.7736C16.0512 21.2181 16.5363 21.7737 16.9021 22.4404C17.2679 23.1071 17.4508 23.9484 17.4508 24.9643C17.4508 26.0438 17.2361 26.9883 16.8067 27.7978C16.3772 28.6074 15.7808 29.2821 15.0174 29.8218C14.2539 30.3615 13.3553 30.7663 12.3215 31.0361C11.2877 31.306 10.1664 31.4409 8.95763 31.4409C7.74886 31.4409 6.60371 31.2822 5.52218 30.9647C4.44065 30.6472 3.49431 30.1631 2.68317 29.5122C1.87202 28.8614 1.21992 28.0439 0.72687 27.0597C0.303704 26.215 0.062131 25.2534 0.00215265 24.1748C0.00162589 24.1654 0.00100467 24.1504 0.000288988 24.1301C-0.00884663 23.8637 0.199743 23.6403 0.466171 23.6312C0.471572 23.631 0.476976 23.6309 0.48238 23.6309H3.57963C3.83732 23.6329 4.04802 23.8369 4.05826 24.0944C4.0601 24.1409 4.06159 24.1719 4.06272 24.1873C4.16244 25.5467 4.64098 26.5279 5.49832 27.1311C6.46852 27.8137 7.68524 28.155 9.14848 28.155C10.4845 28.155 11.5422 27.909 12.3215 27.4169C13.1008 26.9248 13.4905 26.139 13.4905 25.0596C13.4905 24.4564 13.3315 23.9722 13.0134 23.6071C12.6953 23.242 12.242 22.9166 11.6535 22.6308C11.065 22.3451 10.3413 22.0832 9.48248 21.8451C8.62362 21.607 7.65343 21.2974 6.5719 20.9165C5.74485 20.6625 4.97346 20.3926 4.25774 20.1069C3.54203 19.8211 2.92174 19.456 2.39688 19.0116C1.87202 18.5671 1.45849 18.0274 1.1563 17.3924C0.854109 16.7575 0.703013 15.9479 0.703013 14.9637C0.703013 13.9478 0.909776 13.0509 1.3233 12.2731C1.73683 11.4952 2.3094 10.8444 3.04102 10.3206C3.77265 9.79672 4.63151 9.39986 5.61761 9.13001C6.60371 8.86015 7.65343 8.72522 8.76677 8.72522C9.94372 8.72522 11.0412 8.89983 12.0591 9.24906C13.077 9.59829 13.9597 10.0983 14.7072 10.7492C15.4548 11.4 16.0432 12.1699 16.4727 13.0588C16.8236 13.7853 17.0312 14.5755 17.0953 15.4292C17.0962 15.4411 17.0975 15.4677 17.0992 15.5088C17.1102 15.7751 16.9032 16 16.6368 16.011C16.6311 16.0112 16.6254 16.0113 16.6197 16.0114H13.5667C13.3106 16.0104 13.0999 15.8095 13.0866 15.5538C13.0818 15.4628 13.0785 15.409 13.0767 15.3924C12.9717 14.4197 12.6086 13.6498 11.9875 13.0826C11.24 12.4001 10.1505 12.0588 8.71905 12.0588C7.5739 12.0588 6.61961 12.3127 5.85618 12.8207C5.09275 13.3287 4.71103 14.0748 4.71103 15.0589C4.71103 15.5987 4.84622 16.0431 5.11661 16.3924C5.38699 16.7416 5.79256 17.0432 6.33333 17.2972C6.87409 17.5512 7.52619 17.7972 8.28962 18.0353C9.05305 18.2734 9.94373 18.5512 10.9616 18.8687Z" fill="url(#paint4_linear_1_300)"/>
<g opacity="0.4">
<path d="M124.096 30.9106H125.78V11.7815L138.935 30.9106H140.556V8.66742H138.872V27.7648L125.716 8.66742H124.096V30.9106Z" fill="white"/>
<path d="M145.135 8.66742V30.9106H146.851V20.647H156.447V19.0582H146.851V10.2562H158.354V8.66742H145.135Z" fill="white"/>
<path d="M159.9 8.66742V10.2562H167.527V30.9106H169.242V10.2562H176.869V8.66742H159.9Z" fill="white"/>
<path d="M177.423 25.9536H175.802C175.834 27.6059 176.47 28.8769 177.709 29.7667C178.916 30.6564 180.569 31.1013 182.602 31.1013C184.35 31.1013 185.812 30.6882 187.019 29.862C188.227 29.0358 188.831 27.8919 188.831 26.4937C188.831 25.4451 188.545 24.619 187.973 23.9834C187.401 23.3797 186.702 22.9348 185.812 22.6489C184.922 22.3629 183.778 22.1087 182.412 21.918C181.268 21.7909 180.41 21.632 179.838 21.4731C179.234 21.346 178.726 21.0601 178.313 20.6787C177.9 20.2974 177.709 19.7572 177.709 19.0582C177.709 18.1684 178.122 17.4058 178.948 16.8338C179.774 16.2619 180.855 15.9759 182.189 15.9759C183.46 15.9759 184.541 16.2937 185.399 16.8974C186.257 17.5011 186.765 18.3273 186.924 19.3442H188.545C188.386 17.8189 187.718 16.6432 186.574 15.817C185.431 14.9908 183.937 14.5778 182.094 14.5778C180.95 14.5778 179.902 14.8002 179.012 15.1815C178.122 15.5628 177.391 16.103 176.883 16.8021C176.374 17.5011 176.12 18.2955 176.12 19.1853C176.12 20.2021 176.374 20.9965 176.946 21.5685C177.487 22.1404 178.186 22.5535 179.044 22.8077C179.87 23.0619 180.982 23.2526 182.348 23.4433C183.429 23.6339 184.318 23.7928 184.986 23.9834C185.621 24.1741 186.161 24.4601 186.574 24.8732C186.988 25.2863 187.21 25.8582 187.21 26.5891C187.21 27.5424 186.765 28.2732 185.907 28.8452C185.017 29.4171 183.937 29.7031 182.602 29.7031C181.077 29.7031 179.838 29.3854 178.916 28.7181C177.963 28.0508 177.487 27.1293 177.423 25.9536Z" fill="white"/>
</g>
<defs>
<linearGradient id="paint0_linear_1_300" x1="43.9247" y1="11.442" x2="47.235" y2="14.8838" gradientUnits="userSpaceOnUse">
<stop stop-color="#4F0DEE" stop-opacity="0"/>
<stop offset="1" stop-color="#4D47F5"/>
</linearGradient>
<linearGradient id="paint1_linear_1_300" x1="37.5921" y1="15.9726" x2="30.2075" y2="33.5743" gradientUnits="userSpaceOnUse">
<stop stop-color="#36D157" stop-opacity="0"/>
<stop offset="1" stop-color="#36D157"/>
</linearGradient>
<linearGradient id="paint2_linear_1_300" x1="20.5224" y1="3.21273" x2="37.5921" y2="13.7962" gradientUnits="userSpaceOnUse">
<stop stop-color="#FFC500"/>
<stop offset="1" stop-color="#FFB200" stop-opacity="0"/>
</linearGradient>
<linearGradient id="paint3_linear_1_300" x1="68.971" y1="19.8211" x2="58.9987" y2="19.8211" gradientUnits="userSpaceOnUse">
<stop stop-color="white"/>
<stop offset="1" stop-color="#9093EA"/>
</linearGradient>
<linearGradient id="paint4_linear_1_300" x1="17.4508" y1="20.0831" x2="7.41822" y2="20.0831" gradientUnits="userSpaceOnUse">
<stop stop-color="#DFC07E"/>
<stop offset="1" stop-color="white"/>
</linearGradient>
</defs>
</svg>
