<svg width="17" height="15" viewBox="0 0 17 15" fill="none" xmlns="http://www.w3.org/2000/svg">
<path opacity="0.4" d="M15.3444 0.5C15.5944 0.5 15.8444 0.75 15.8444 1C15.8444 1.28125 15.5944 1.5 15.3444 1.5H3.34436C2.50061 1.5 1.84436 2.1875 1.84436 3V12C1.84436 12.8438 2.50061 13.5 3.34436 13.5H14.3444C15.1569 13.5 15.8444 12.8438 15.8444 12V5C15.8444 4.1875 15.1569 3.5 14.3444 3.5H4.34436C4.06311 3.5 3.84436 3.28125 3.84436 3C3.84436 2.75 4.06311 2.5 4.34436 2.5H14.3444C15.7194 2.5 16.8444 3.625 16.8444 5V12C16.8444 13.4062 15.7194 14.5 14.3444 14.5H3.34436C1.93811 14.5 0.84436 13.4062 0.84436 12V3C0.84436 1.625 1.93811 0.5 3.34436 0.5H15.3444ZM12.0944 8.5C12.0944 8.09375 12.4069 7.75 12.8444 7.75C13.2506 7.75 13.5944 8.09375 13.5944 8.5C13.5944 8.9375 13.2506 9.25 12.8444 9.25C12.4069 9.25 12.0944 8.9375 12.0944 8.5Z" fill="white"/>
</svg>
